<svg width="858" height="213" viewBox="0 0 858 213" fill="none" xmlns="http://www.w3.org/2000/svg">
<path d="M78.1871 112.736H48.8959L64.4928 61.7944L78.1871 112.736ZM33.7122 168.915L43.6958 135.439H83.1771L92.5265 168.915H129.105L92.7657 41.2097C90.6747 33.6686 86.1087 30.1755 78.1871 30.1755H26.4537V42.2362H30.7987C36.2054 42.2362 39.1298 44.3509 39.1298 48.4968C39.1298 51.2064 38.521 53.4843 36.3793 59.7087L0 168.915H33.7122ZM171.228 168.915V40.807C171.228 34.1365 167.318 30.1755 160.86 30.1755H128.87V42.2362H130.953C136.338 42.2362 138.621 44.5286 138.621 49.9876V168.915H171.228ZM226.694 168.915V40.807C226.694 34.1365 222.73 30.1755 216.308 30.1755H184.321V42.2362H186.35C191.779 42.2362 194.065 44.5286 194.065 49.9876V168.915H226.694ZM283.588 42.8383C283.588 33.538 276.713 27.9121 264.896 27.9121C253.267 27.9121 246.157 33.5344 246.157 42.8383C246.157 52.2438 253.267 57.8261 264.896 57.8261C276.71 57.8261 283.588 52.2438 283.588 42.8383ZM282.979 168.915V75.5235C282.979 68.8675 279.007 64.9356 272.564 64.9356H240.99V76.7641H242.849C248.256 76.7641 250.539 79.2524 250.539 84.6715V168.918H282.979V168.915ZM354.4 118.967V139.175C348.972 144.801 342.359 148.167 336.756 148.167C330.904 148.167 328.856 145.294 328.856 137.503C328.856 129.798 330.487 126.305 336.318 124.035C340.663 122.145 346.29 120.48 354.4 118.967ZM310.516 94.6936C321.34 89.4921 333.194 86.5722 342.529 86.5722C351.284 86.5722 354.4 89.6916 354.4 98.7888V101.11C341.108 103.21 336.955 104.066 329.454 105.72C325.138 106.74 321.123 107.969 317.188 109.652C304.073 114.908 297.88 125.043 297.88 140.626C297.88 160.391 306.389 169.938 324.04 169.938C330.483 169.938 336.314 168.701 341.521 166.644C346.073 164.62 348.78 162.919 355.444 157.717V159.165C355.444 165.599 358.753 168.915 365.217 168.915H394.918V157.717H393.454C387.859 157.717 385.786 155.2 385.786 148.573V99.0354C385.786 72.6362 376.636 63.4339 350.215 63.4339C341.713 63.4339 333.404 64.5221 325.327 66.3828C317.184 68.2364 313.009 69.9049 303.29 74.7074L310.516 94.6936ZM442.241 168.915V98.611C447.666 92.5717 453.258 89.8476 459.701 89.8476C466.582 89.8476 468.224 92.5717 468.224 103.025V168.915H500.639V98.2084C500.639 81.7552 499.436 76.5573 494.221 70.9786C489.851 66.1543 483.208 63.6914 474.66 63.6914C461.969 63.6914 453.044 67.6306 441.053 78.8642V74.7183C441.053 68.24 437.675 64.9356 431.04 64.9356H400.256V76.7641H402.122C407.529 76.7641 409.837 79.2524 409.837 84.6715V168.918H442.241V168.915ZM596.822 147.079H551.517L594.753 86.3799V64.9174H527.027C519.33 64.9174 515.804 68.4467 515.804 76.1583V95.0563H527.846V93.2028C527.846 88.4293 530.336 86.1369 535.503 86.1369H558.812L515.159 147.503V168.907H596.822V147.079Z" fill="white"/>
<path d="M780.517 166.259H811.044V74.7072C811.044 65.5266 807.51 62.2077 798.56 62.2077H780.517V166.259ZM766.96 166.259V48.7142C766.96 39.3486 763.637 36.2002 754.541 36.2002H727.059V49.3236H728.7C734.98 49.3236 736.194 50.7383 736.194 58.3011V166.263H766.96V166.259ZM722.71 166.259V62.2113H704.627C695.687 62.2113 692.176 65.5302 692.176 74.7108V166.263H722.71V166.259Z" fill="white"/>
<path d="M839.92 106.518C839.92 158.312 802.722 195.97 751.601 195.97C700.483 195.97 663.271 158.312 663.271 106.518C663.271 54.7064 700.483 17.0445 751.601 17.0445C802.725 17.0481 839.92 54.9458 839.92 106.518ZM857.999 106.518C857.999 45.6092 812.481 0 751.604 0C690.695 0 645.191 45.6092 645.191 106.518C645.191 167.5 690.699 213 751.604 213C812.481 213 857.999 167.5 857.999 106.518Z" fill="white"/>
</svg>
