<?xml version="1.0" encoding="utf-8"?>
<!-- Generator: Adobe Illustrator 22.1.0, SVG Export Plug-In . SVG Version: 6.00 Build 0)  -->
<svg version="1.1" id="Layer_2" xmlns="http://www.w3.org/2000/svg" xmlns:xlink="http://www.w3.org/1999/xlink" x="0px" y="0px"
	 viewBox="0 0 161 56" style="enable-background:new 0 0 161 56;" xml:space="preserve">
<style type="text/css">
	.st0{fill:#FFFFFF;}
</style>
<g id="logo-flywire-blue">
	<path id="Combined-Shape" class="st0" d="M34.2,43.1L40.9,1h5.4l-6.7,42.1L34.2,43.1 M67.2,42.3c-1.3,8.2-6,12.5-13.5,12.5
		c-4.6,0-8.2-1.7-10.6-4.6l3-3.7c2.1,2.5,4.6,3.6,7.6,3.6c4.5,0,7.3-2.6,8.2-7.8l0.3-2.1h-0.1c-2.4,2.3-5.3,3.5-8.4,3.5
		c-5.8,0-8.6-2.9-8.6-8.5c0-1.1,0.1-2.2,0.3-3.4l2.7-17.3h5.3l-2.7,17.3c-0.2,0.9-0.2,1.7-0.2,2.4c0,3.2,1.4,4.7,4.5,4.7
		c3.3,0,6.2-2,8.1-5.5l3-19h5.4L67.2,42.3 M128,19.7l1.1-5.3h-5.3l-4.5,28.8h5.4l2.4-15.4c1.1-5.7,5.2-8.5,9.6-8.5
		c0.5,0,0.9,0,1.4,0l0.8-5.1C133.8,13.5,130,16.1,128,19.7 M107.6,14.6l-8.9,19.9l-3.2-19.9h-5.2l-9.1,19.9l-3-19.9h-5.5l4.6,28.7
		H83l8.9-19.9L95,43.3h5.5l12.8-28.7H107.6 M109.5,43.3l4.5-28.7h5.4l-4.5,28.7H109.5 M120.8,8.8c0,1.7-1.4,3.1-3.1,3.1
		s-3.1-1.4-3.1-3.1s1.4-3.1,3.1-3.1C119.5,5.7,120.8,7.1,120.8,8.8L120.8,8.8z M20.5,22.5l0.5-3.1H1.8l0.8-5h19.2l0.4-2.4
		C23.3,5,27.9,1,35,1h3.9l-0.8,4.9l-3.6,0c-3.9,0-6.1,1.9-6.8,6.3l-0.3,2.2h7.4l-0.8,5h-7.4l-4.1,24.2c-1.1,7-5.8,11-12.9,10.9
		l-0.4,0l0.8-5.3l0.3,0c4,0,6.1-1.7,6.8-6l2.6-15.7H0.4l0.8-5L20.5,22.5L20.5,22.5z M146.1,39L146.1,39c7.5-0.1,7.7-5.4,7.7-5.4h5
		c0,0-1.1,10-12.8,10c-3.6,0-6.6-1.2-8.3-3.4c-1.9-2.4-2.5-5.3-2-8.9l0.4-2.6c1.1-6.7,2.6-15.1,14.3-15.1c3.2,0,5.9,0.9,7.7,2.7
		c1.6,1.5,2.5,3.7,2.5,5.8c0,3.1-1.3,5.5-3.8,7c-2.6,1.6-5.8,1.9-8.2,1.9h-7.9c-0.5,2.8-0.2,4.9,0.9,6.1
		C142.6,38.5,144.1,39.1,146.1,39z M141.6,25.8L141.6,25.8l-0.2,0.9h7.3c4.6,0,6.7-1.4,6.7-4.4c0-2.5-2.1-4-5.4-4
		C145.4,18.3,142.5,21,141.6,25.8z"/>
</g>
</svg>
