<svg id="logo-delcampe" width="100%" height="100%" xmlns="http://www.w3.org/2000/svg" xmlns:xlink="http://www.w3.org/1999/xlink" x="0px" y="0px"
	 viewBox="0 0 2350 510" enable-background="new 0 0 2350 510" xml:space="preserve">
<g>
	<g>
		<rect x="171" y="117.6" display="none" fill="#FF8000" width="78.3" height="79.6"/>
		<rect x="72.3" y="117.6" fill="#57BBFF" width="64" height="79.6"/>
		<g>
			<rect x="122.7" fill="#7DBA55" width="126.6" height="83"/>
		</g>
		<ellipse fill="#FDBA19" cx="46.5" cy="47.3" rx="46.5" ry="47.3"/>
		<g>
			<g>
				<path fill="#FFFFFF" d="M807.7,0h-43.9c-3.9,0-7.1,3.2-7.1,7.2v371.1c0,4,3.2,7.2,7.1,7.2h43.9c3.9,0,7.1-3.2,7.1-7.2V7.2
					C814.9,3.2,811.7,0,807.7,0z"/>
				<path fill="#FFFFFF" d="M980.9,183c19.3,0,37.3,7.8,50.7,21.8c2.7,2.9,7.2,2.9,10.1,0.2l31.5-31c2.8-2.8,2.9-7.4,0.2-10.2
					c-24.5-25.6-57.3-39.8-92.4-39.8c-71,0-128.7,58.7-128.7,130.8c0,72.1,57.7,130.8,128.7,130.8c34.4,0,66.7-13.6,91-38.3
					c2.8-2.8,2.8-7.4,0-10.2l-31-31.5c-1.3-1.4-3.1-2.1-5-2.1c-1.9,0-3.7,0.8-5,2.1c-13.3,13.6-31.1,21-49.9,21
					c-38.9,0-70.6-32.2-70.6-71.8C910.3,215.2,942,183,980.9,183z"/>
				<path fill="#FFFFFF" d="M1654.5,124c-30.5,0-59.1,12.8-79.7,35.5c-20.6-22.6-49.2-35.5-79.7-35.5c-17.8,0-35.1,4.4-50.6,12.7
					v-5.5c0-4-3.2-7.2-7.1-7.2h-43.9c-3.9,0-7.1,3.2-7.1,7.2v247.1c0,4,3.2,7.2,7.1,7.2h43.9c3.9,0,7.1-3.2,7.1-7.2l0-146.1
					c1.2-27.6,23.4-49.2,50.6-49.2c28,0,50.7,23.1,50.7,51.5v143.8c0,4,3.2,7.2,7.1,7.2h43.9c3.9,0,7.1-3.2,7.1-7.2V234.5
					c0-28.4,22.7-51.5,50.7-51.5c28,0,50.7,23.1,50.7,51.5v143.8c0,4,3.2,7.2,7.1,7.2h43.9c3.9,0,7.1-3.2,7.1-7.2V234.5
					C1763.3,173.6,1714.5,124,1654.5,124z"/>
				<path fill="#FFFFFF" d="M425.5,0h-43.9c-3.9,0-7.1,3.2-7.1,7.2v129.5c10.8,6.7,20.6,14.8,29.1,24.2v11c0,0,0,0,0,0
					c-1.9-2.4-4-4.7-6.1-7c-0.3-0.3-0.5-0.6-0.8-0.9c-23.3-24.7-55.8-40.1-91.9-40.1C234.3,124,177,182.7,177,254.8
					c0,72.1,57.3,130.8,127.8,130.8c10.7,0,21.2-1.4,31.1-4c2.3-0.6,4.7-1.2,6.9-2c11.3-3.6,21.9-8.8,31.6-15.3v14
					c0,4,3.2,7.2,7.1,7.2h43.9c3.9,0,7.1-3.2,7.1-7.2V241.4v-7.5V7.2C432.6,3.2,429.4,0,425.5,0z M364.6,292.7
					c-0.7,1.2-1.5,2.4-2.3,3.5c-4.6,6.7-10.4,12.6-16.9,17.4c-11.5,8.4-25.5,13.3-40.6,13.3c-38.9,0-70.5-32.4-70.5-72.1
					c0-39.8,31.6-72.1,70.5-72.1c35.5,0,64.9,27.1,69.7,62.1c0.2,1.4,0.4,2.9,0.5,4.4c0.1,1.9,0.3,3.8,0.3,5.7
					c0,1.9-0.1,3.8-0.3,5.7c-0.1,1.5-0.3,2.9-0.5,4.3v0.1c-0.2,1.8-0.6,3.6-1,5.3C371.8,278.2,368.7,285.8,364.6,292.7z"/>
				<path fill="#FFFFFF" d="M2338.8,269.8c6,0,10.9-4.9,11.1-11c0-1.3,0.1-2.6,0.1-4c0-75-62.1-135.3-136.9-130.5
					c-64.1,4-116.3,57.1-120.2,122.2c-4.6,76,54.6,139.2,128.5,139.2c47.5,0,89-26.2,111.3-65.1c3-5.3-0.6-12-6.7-12l-51.6,0
					c-3.7,0-7.3,1.2-10.2,3.5c-13.5,10.5-30.7,16.1-49.4,14.4c-30.7-2.8-56.4-26.3-62.6-56.6H2338.8z M2230.5,183.5
					c27,3.5,49.2,22.9,57.8,48.3h-134C2164.6,200.6,2195.5,179,2230.5,183.5z"/>
				<path fill="#FFFFFF" d="M1337.5,124h-43.9c-3.9,0-7.1,3.2-7.1,7.2v14.3c-20.9-14-45.5-21.5-70.7-21.5
					c-71,0-128.7,58.7-128.7,130.8s57.7,130.8,128.7,130.8c25.1,0,49.8-7.6,70.7-21.5v14.3c0,4,3.2,7.2,7.1,7.2h43.9
					c3.9,0,7.1-3.2,7.1-7.2V131.2C1344.6,127.2,1341.4,124,1337.5,124z M1286.5,254.8c0,39.6-31.7,71.8-70.6,71.8
					c-38.9,0-70.6-32.2-70.6-71.8c0-39.6,31.7-71.8,70.6-71.8C1254.8,183,1286.5,215.2,1286.5,254.8z"/>
				<path fill="#FFFFFF" d="M1933.7,124c-25.2,0-49.8,7.6-70.6,21.5v-14.3c0-4-3.2-7.2-7.1-7.2H1812c-3.9,0-7.1,3.2-7.1,7.2v371.5
					c0,4,3.2,7.2,7.1,7.2h43.9c3.9,0,7.1-3.2,7.1-7.2V364.1c20.9,14,45.5,21.5,70.6,21.5c71,0,128.7-58.7,128.7-130.8
					C2062.4,182.7,2004.6,124,1933.7,124z M1933.7,326.6c-38.9,0-70.6-32.2-70.6-71.8c0-39.6,31.7-71.8,70.6-71.8
					c38.9,0,70.6,32.2,70.6,71.8C2004.3,294.4,1972.6,326.6,1933.7,326.6z"/>
			</g>
		</g>
		<g>
			<path fill="#FF8000" d="M249.2,129.5v-11.9H171v79.6h11.7C196.2,167.3,219.9,143.2,249.2,129.5z"/>
		</g>
	</g>
	<path fill="#FFFFFF" d="M712.1,269.8c6,0,10.9-4.9,11.1-11c0-1.3,0.1-2.6,0.1-4c0-75-62.1-135.3-136.9-130.5
		c-64.1,4-116.3,57.1-120.2,122.2c-4.6,76,54.6,139.2,128.5,139.2c47.5,0,89-26.2,111.3-65.1c3-5.3-0.6-12-6.7-12l-51.6,0
		c-3.7,0-7.3,1.2-10.2,3.5c-13.5,10.5-30.7,16.1-49.4,14.4c-30.7-2.8-56.4-26.3-62.6-56.6H712.1z M603.8,183.5
		c27,3.5,49.2,22.9,57.8,48.3h-134C537.9,200.6,568.7,179,603.8,183.5z"/>
</g>
</svg>
