<svg width="240" height="62" viewBox="0 0 240 62" xmlns="http://www.w3.org/2000/svg" xmlns:xlink="http://www.w3.org/1999/xlink"><defs><path id="path-1" d="M0 .397h61.47V61.88H0z"/><path id="path-3" d="M.215.093h21.287v32.724H.215z"/></defs><g id="Brand" stroke="none" stroke-width="1" fill="none" fill-rule="evenodd"><g id="Logo-&amp;-Colour" transform="translate(-848 -285)"><g id="logo" transform="translate(120 138)"><g id="logo/brand/large_inversed" transform="translate(728 142)"><g id="Group-19" transform="translate(0 5)"><g id="Group-3" transform="translate(0 .181)"><mask id="mask-2" fill="#fff"><use xlink:href="#path-1"/></mask><path d="M60.175 33.468h-5.917c-.675 0-1.227.52-1.288 1.193-.85 9.353-7.032 14.007-9.149 15.602-5.096 3.841-14.872 5.378-19.506-2.84 3.69-.42 8.314-1.944 13.09-5.02 6.852-4.412 9.585-12.499 5.314-19.333-5.719-9.15-16.526-6.424-21.41-2.735-3.663 2.766-5.916 6.354-2.922 9.052 3.724 3.357 8.473-2.237 11.637-3.357 2.39-.847 4.058-.327 5.337 1.439 1.47 2.03 1.164 4.7-1.469 6.958-4.02 3.445-16.257 8.857-23.331-.274-4.41-5.69-1.791-15.76 6.257-21.413 3.299-2.316 6.929-3.618 10.385-3.867A1.29 1.29 0 0028.4 7.584V1.691A1.29 1.29 0 0027.044.399c-5.114.28-10.413 2.066-15.133 5.429C.197 14.176-3.508 29.072 3.638 39.1c2.792 3.92 6.83 6.507 11.41 7.718 1.21 4.58 3.799 8.618 7.717 11.41 7.912 5.637 18.886 4.564 27.219-1.953C56.489 51.186 60.9 43.479 61.467 34.82c.048-.737-.554-1.353-1.292-1.353" id="Fill-1" fill="#FFF" mask="url(#mask-2)"/></g><path d="M82.666 29.217h8.216c-.14-1.915-1.68-3.408-3.875-3.408-2.38 0-3.92 1.4-4.341 3.408m14.317 4.434H82.34c.374 2.474 2.287 4.202 5.135 4.202 2.179 0 3.95-.774 5.316-2.32a.435.435 0 01.623-.026l3.44 3.22c.346.326.375.87.056 1.223-2.4 2.648-5.484 3.971-9.248 3.971-3.501 0-6.35-1.074-8.636-3.221-2.288-2.195-3.408-5.042-3.408-8.59 0-3.5 1.027-6.395 3.128-8.682 2.1-2.288 4.808-3.455 8.122-3.455 3.501 0 6.208 1.167 8.123 3.502 1.914 2.334 2.894 5.088 2.894 8.215l-.027 1.107a.874.874 0 01-.874.854" id="Fill-4" fill="#FFF"/><path d="M107.016 43.407h-5.754a.437.437 0 01-.437-.437V20.971c0-.242.195-.438.437-.438h5.66c.242 0 .438.196.438.438v1.15c1.494-1.448 3.315-2.148 5.415-2.148 5.649 0 9.336 3.735 9.336 10.13V42.97a.437.437 0 01-.437.437h-5.801a.437.437 0 01-.437-.437V30.617c0-2.614-1.214-4.482-3.781-4.482-2.8 0-4.202 1.96-4.202 5.836v11a.437.437 0 01-.437.436" id="Fill-6" fill="#FFF"/><path d="M139.407 25.776a.874.874 0 01-.875.873h-.152c-3.875 0-6.349 2.52-6.349 7.189v9.132a.437.437 0 01-.437.437h-5.754a.437.437 0 01-.437-.437v-22c0-.24.196-.436.437-.436h5.661c.241 0 .437.195.437.437v1.616c1.353-1.587 3.22-2.38 5.695-2.38.528 0 .985 0 1.357.016.234.01.417.202.417.436v5.117z" id="Fill-8" fill="#FFF"/><path d="M182.384 35.985c1.073-1.167 1.634-2.567 1.634-4.155 0-3.174-2.287-5.695-5.835-5.695-1.634 0-2.988.56-4.061 1.681-1.074 1.12-1.588 2.474-1.588 4.014s.56 2.941 1.634 4.108c1.073 1.167 2.428 1.774 4.015 1.774 1.727 0 3.128-.56 4.201-1.727m1.634-13.911V20.97c0-.242.196-.438.437-.438h5.801c.241 0 .437.196.437.438v22a.437.437 0 01-.437.436h-5.801a.437.437 0 01-.437-.437v-1.243c-1.774 1.447-3.875 2.194-6.348 2.194-3.315 0-6.163-1.12-8.497-3.408-2.334-2.287-3.5-5.135-3.5-8.542 0-3.408 1.166-6.256 3.5-8.543 2.334-2.287 5.182-3.455 8.497-3.455 2.753 0 4.854.7 6.348 2.1" id="Fill-10" fill="#FFF"/><path d="M214.892 38.507c.332.321.36.848.058 1.198-2.413 2.798-5.56 4.216-9.517 4.216-3.455 0-6.349-1.12-8.636-3.407-2.287-2.288-3.455-5.136-3.455-8.544 0-3.407 1.168-6.255 3.455-8.542 2.334-2.287 5.228-3.455 8.636-3.455 3.375 0 6.35 1.324 8.96 3.936a.874.874 0 01-.014 1.243l-3.523 3.414a.434.434 0 01-.627-.019c-1.373-1.546-2.907-2.318-4.563-2.318-3.174 0-5.556 2.38-5.556 5.741 0 3.362 2.382 5.742 5.556 5.742 1.882 0 3.559-.861 5.03-2.624a.432.432 0 01.637-.03l3.56 3.449z" id="Fill-12" fill="#FFF"/><g id="Group-16" transform="translate(218.024 10.59)"><mask id="mask-4" fill="#fff"><use xlink:href="#path-3"/></mask><path d="M6.407 32.817H.653a.437.437 0 01-.438-.438V.531c0-.242.197-.438.438-.438h5.754c.241 0 .437.196.437.438v10.72c1.354-1.262 3.128-1.868 5.322-1.868 5.649 0 9.337 3.735 9.337 10.13v12.866a.437.437 0 01-.438.438h-5.801a.436.436 0 01-.437-.438V20.026c0-2.614-1.214-4.481-3.781-4.481-2.801 0-4.202 1.96-4.202 5.835v11a.437.437 0 01-.437.437" id="Fill-14" fill="#FFF" mask="url(#mask-4)"/></g><path d="M148.265 29.217h8.216c-.14-1.915-1.68-3.408-3.874-3.408-2.381 0-3.921 1.4-4.342 3.408m14.318 4.434H147.94c.373 2.474 2.287 4.202 5.134 4.202 2.18 0 3.951-.774 5.317-2.32a.434.434 0 01.622-.026l3.44 3.22c.348.326.376.87.057 1.223-2.401 2.648-5.484 3.971-9.249 3.971-3.5 0-6.348-1.074-8.636-3.221-2.287-2.195-3.407-5.042-3.407-8.59 0-3.5 1.026-6.395 3.127-8.682 2.1-2.288 4.808-3.455 8.123-3.455 3.5 0 6.209 1.167 8.123 3.502 1.913 2.334 2.893 5.088 2.893 8.215l-.025 1.107a.875.875 0 01-.875.854" id="Fill-17" fill="#FFF"/></g></g></g></g></g></svg>