<?xml version="1.0" encoding="utf-8"?>
<!-- Generator: Adobe Illustrator 18.1.1, SVG Export Plug-In . SVG Version: 6.00 Build 0)  -->
<svg version="1.1" id="Layer_1" xmlns="http://www.w3.org/2000/svg" xmlns:xlink="http://www.w3.org/1999/xlink" x="0px" y="0px"
	 viewBox="0 0 515 151" enable-background="new 0 0 515 151" xml:space="preserve">
<g>
	<path fill="#CF0A2C" d="M502.8,12.8c0,6.8-5.6,12.8-12.8,12.8c-6.8,0-12.8-5.6-12.8-12.8C477.3,5.9,483,0,490.1,0
		C496.9,0,502.8,5.6,502.8,12.8"/>
	<path fill="#FFFFFF" d="M0,79.8c0-21.1,17.2-38.6,38.6-38.6v11c-15.4,0-27.3,12.2-27.3,27.3v38.3H0V79.8z"/>
	<path fill="#FFFFFF" d="M115.4,41.2h11V81c0,21.1-17.2,38.3-38.3,38.3c-21.4,0-38-17.2-38-38.3V41.2h10.7V81
		c0,15.4,12.2,27.3,27.3,27.3s27.3-12.2,27.3-27.3V41.2z"/>
	<rect x="229.9" y="41.2" fill="#FFFFFF" width="11" height="77.1"/>
	<path fill="#FFFFFF" d="M293.4,41.2c17.2,0,32,11.6,36.5,27.3h-11.6c-4.2-9.5-13.9-16.3-24.9-16.3c-15.4,0-27.3,12.2-27.3,27.3
		s12.2,27.3,27.3,27.3c11,0,20.8-6.8,24.9-16.3h11.6c-4.4,15.7-19.6,27.3-36.5,27.3c-21.4,0-38.6-17.2-38.6-38.6
		C255.1,58.7,272.3,41.2,293.4,41.2"/>
	<path fill="#FFFFFF" d="M377,40.9c21.1,0,38.6,17.8,38.6,38.6c0,21.4-17.8,38.6-38.6,38.6c-21.4,0-38.6-17.5-38.6-38.6
		C338.5,58.7,355.7,40.9,377,40.9 M377,107.4c15.1,0,27.6-12.5,27.6-27.9c0-14.8-12.5-27.6-27.6-27.6s-27.9,12.8-27.9,27.6
		C349.2,94.9,361.9,107.4,377,107.4"/>
	<path fill="#FFFFFF" d="M436.7,118.4h-11V78c0-21.4,17.2-38.3,38.6-38.3c21.1,0,38.3,17.2,38.3,38.3v40.3h-11V78
		c0-15.1-12.2-27.3-27.3-27.3c-15.4,0-27.9,12.2-27.9,27.3v40.3H436.7z"/>
	<path fill="#FFFFFF" d="M177.4,41.2h-27.9V19h-11v60.5c0,21.7,17.2,38.6,38.6,38.6s38.6-17.2,38.6-38.6
		C216,58.4,198.8,41.2,177.4,41.2 M177.4,107.4c-15.7,0-27.9-12.8-27.9-27.9V51.9h27.9c15.1,0,27.6,12.5,27.6,27.6
		C205,94.6,192.5,107.4,177.4,107.4"/>
	<path fill="#CF0A2C" d="M419.8,0C412.6,0,407,5.6,407,12.8s5.6,12.8,12.8,12.8c6.8,0,12.8-5.6,12.8-12.8C432.2,5.6,426.6,0,419.8,0
		 M419.8,23.1c-5.9,0-10.7-4.7-10.7-10.7s4.7-10.7,10.7-10.7s10.7,4.7,10.7,10.7S425.7,23.1,419.8,23.1"/>
	<path fill="#CF0A2C" d="M454.8,0C447.9,0,442,5.6,442,12.8c0,6.8,5.6,12.8,12.8,12.8c6.8,0,12.8-5.6,12.8-12.8S461.9,0,454.8,0
		 M454.8,18.7c-3.3,0-6.2-2.7-6.2-5.9s2.7-6.2,6.2-6.2c3.3,0,5.9,2.7,5.9,6.2C461,16,458.3,18.7,454.8,18.7"/>
	<path fill="#FFFFFF" d="M310.3,135.6h5.6c2.7,0,4.7,2.1,4.7,4.7c0,3-2.1,4.7-4.7,4.7h-3v5h-2.7V135.6z M315.3,143
		c1.5,0,2.4-0.9,2.4-2.7c0-1.5-0.9-2.4-2.4-2.4h-2.7v5H315.3z"/>
	<path fill="#FFFFFF" d="M339.7,135.6h4.7c1.5,0,2.4,0,3,0.3c1.5,0.6,2.4,2.1,2.4,4.2c0,1.8-0.9,3.6-2.4,4.2l0,0
		c0,0,0.3,0.3,0.6,0.6l3,5.6h-3l-3-5.6h-2.7v5.6h-2.7L339.7,135.6L339.7,135.6z M344.7,142.4c1.5,0,2.4-0.9,2.4-2.4
		s-0.6-2.4-2.7-2.4h-2.1v4.7H344.7z"/>
	<path fill="#FFFFFF" d="M376.8,135.3c4.4,0,7.7,3.3,7.7,7.4c0,4.4-3.3,7.7-7.7,7.7c-4.4,0-7.7-3.3-7.7-7.7
		C369,138.5,372.3,135.3,376.8,135.3 M376.8,148c2.7,0,4.7-2.4,4.7-5.3s-2.1-5-4.7-5c-2.7,0-4.7,2.1-4.7,5
		C371.7,146,374.1,148,376.8,148"/>
	<path fill="#FFFFFF" d="M402.3,145.1h2.7v0.6c0,1.8,0.9,2.4,2.1,2.4c0.9,0,1.8-0.6,1.8-2.1v-8v-2.4h2.7V146c0,3.3-2.4,4.7-4.7,4.7
		s-4.4-1.5-4.4-4.7L402.3,145.1L402.3,145.1z"/>
	<polygon fill="#FFFFFF" points="431.9,135.6 440.8,135.6 440.8,137.9 434.6,137.9 434.6,141.8 439.6,141.8 439.6,144.2 
		434.6,144.2 434.6,148 441.1,148 441.1,150.4 431.9,150.4 	"/>
	<path fill="#FFFFFF" d="M466.9,135.3c3.6,0,5.3,2.1,5.3,2.1l-1.2,2.1c0,0-1.8-1.5-4.2-1.5c-3.3,0-5,2.4-5,5c0,2.7,1.8,5.3,5,5.3
		c2.7,0,4.2-1.8,4.2-1.8l1.5,2.1c0,0-2.1,2.4-5.9,2.4c-4.4,0-7.7-3.3-7.7-7.7C459.5,138.5,462.8,135.3,466.9,135.3"/>
	<polygon fill="#FFFFFF" points="495.1,137.9 490.4,137.9 490.4,135.6 502.8,135.6 502.8,137.9 497.8,137.9 497.8,150.4 
		495.1,150.4 	"/>
	<path fill="#FFFFFF" d="M508.8,39.5c3.6,0,6.2,3,6.2,6.5c0,3.6-3,6.5-6.2,6.5c-3.6,0-6.2-3-6.2-6.5
		C502.5,42.4,505.5,39.5,508.8,39.5 M508.8,51.6c3,0,5.3-2.4,5.3-5.6c0-3-2.4-5.6-5.3-5.6s-5.3,2.4-5.3,5.6
		C503.7,48.9,505.8,51.6,508.8,51.6 M506.7,42.4h2.4c1.2,0,2.1,0.9,2.1,2.1c0,0.9-0.6,1.8-1.2,1.8l0,0c0,0,0,0,0.3,0.3l1.2,2.7h-1.2
		l-1.5-2.7h-1.2v2.7h-0.9L506.7,42.4L506.7,42.4z M509.1,46c0.9,0,1.2-0.6,1.2-1.2c0-0.9-0.6-1.2-1.2-1.2h-1.2V46
		C507.9,46,509.1,46,509.1,46z"/>
</g>
</svg>
