<?xml version="1.0" encoding="utf-8"?>
<!-- Generator: Adobe Illustrator 19.2.1, SVG Export Plug-In . SVG Version: 6.00 Build 0)  -->
<svg version="1.1" id="Vrstva_1" xmlns="http://www.w3.org/2000/svg" xmlns:xlink="http://www.w3.org/1999/xlink" x="0px" y="0px"
	 viewBox="0 0 333.2 56.6" style="enable-background:new 0 0 333.2 56.6;" xml:space="preserve">
<style type="text/css">
	.st0{fill:#8A9196;}
	.st1{fill:#D0031C;}
	.st2{fill:#FFFFFF;}
</style>
<g>
	<g>
		<path class="st0" d="M157.9,28.4L157.9,28.4c0-9.1,6.4-17.6,16.7-17.6c5.2,0,8.4,1.5,11.7,4.3l-0.7,0.8c-3.1-2.6-6.3-4.2-11.1-4.2
			c-9.5,0-15.6,8.1-15.6,16.5v0.1c0,8.8,5.8,16.5,15.7,16.5c5,0,9.2-2.2,12-4.6V29.3h-12.5v-1.1h13.5v12.3
			c-3.2,2.9-7.7,5.2-13.1,5.2C164,45.8,157.9,37.8,157.9,28.4z"/>
		<path class="st0" d="M197.1,11.4h13.8c4.4,0,7.6,1.1,9.7,3.2c1.5,1.5,2.4,3.7,2.4,6.3V21c0,5.7-4.5,9.1-11.1,9.5l11.3,14.8h-1.3
			l-11.2-14.7h-0.1h-12.4v14.7h-1.1L197.1,11.4L197.1,11.4z M210.4,29.5c7.8,0,11.6-3.7,11.6-8.5v-0.1c0-5.4-4.2-8.5-11.2-8.5h-12.7
			v17.1L210.4,29.5L210.4,29.5z"/>
		<path class="st0" d="M229.8,28.4L229.8,28.4c0-9.3,6.6-17.5,16.8-17.5c10.2,0,16.8,8.2,16.8,17.4v0.1c0,9.2-6.6,17.4-16.8,17.4
			C236.4,45.8,229.8,37.6,229.8,28.4z M262.4,28.4L262.4,28.4c0-8.7-6.4-16.6-15.8-16.6c-9.5,0-15.7,7.7-15.7,16.4v0.1
			c0,8.6,6.4,16.5,15.8,16.5C256.2,44.9,262.4,37.1,262.4,28.4z"/>
		<path class="st0" d="M271.5,30.3V11.4h1.1v18.8c0,9.7,5.2,14.5,12.7,14.5c7.6,0,12.6-4.8,12.6-14.5V11.4h1.1v18.8
			c0,10.3-5.5,15.5-13.7,15.5C277.1,45.8,271.5,40.6,271.5,30.3z"/>
		<path class="st0" d="M308.3,11.4h11.9c8.3,0,13,3.8,13,10.1v0.1c0,6.6-5,10.3-13.2,10.3h-10.6v13.3h-1.1V11.4z M320,31
			c7.5,0,12.1-3.3,12.1-9.3v-0.1c0-5.8-4.4-9.2-12-9.2h-10.7V31L320,31L320,31z"/>
	</g>
	<rect class="st1" width="142.8" height="56.6"/>
	<path class="st2" d="M14.8,15.1c0.8-4.3,3.4-5.2,5.4-5.2c4.1,0,5,2.4,7.1,8.9l4,12.5h0.1l4-12.5c2.1-6.5,3-8.9,7.1-8.9
		c2.1,0,4.7,0.9,5.4,5.2l3.3,18.6c0.7,3.8,1.4,7.9,1.4,9.1c0,1.8-1.4,3.9-3.9,3.9c-3.7,0-4.4-2.6-4.8-5.4l-2.4-16.1h-0.1L36,43
		c-0.8,2.6-2,3.7-4.5,3.7c-2.5,0-3.7-1.1-4.5-3.7l-5.5-17.8h-0.1l-2.4,16.1c-0.4,2.8-1.1,5.4-4.8,5.4c-2.4,0-3.9-2.1-3.9-3.9
		c0-1.2,0.7-5.3,1.4-9.1L14.8,15.1z"/>
	<path class="st2" d="M63.2,16.9c1.5-4,2.7-7.5,6.9-7.5c4.2,0,5.5,3.5,7,7.5L85,38.3c1.1,2.9,1.2,3.9,1.2,5.1c0,2-1.6,3.4-4,3.4
		c-2.7,0-3.6-1.7-4.3-4l-1-3.3H63.4l-1,3.3c-0.8,2.3-1.6,4-4.3,4c-2.3,0-4-1.3-4-3.4c0-1.2,0.2-2.2,1.2-5.1L63.2,16.9z M70.3,18.6
		h-0.1l-4.4,13.3h8.6L70.3,18.6z"/>
	<path class="st2" d="M88.1,14.3c0-2.9,1.7-4.4,4.1-4.4c2.4,0,4.1,1.5,4.1,4.4v24.5h8.8c2.6,0,4.1,1.4,4.1,3.8
		c0,2.3-1.5,3.8-4.1,3.8h-13c-2.1,0-4.1-1.5-4.1-4.1V14.3z"/>
	<path class="st2" d="M110.8,14.3c0-2.9,1.7-4.4,4.1-4.4c2.4,0,4.1,1.5,4.1,4.4v24.5h8.8c2.6,0,4.1,1.4,4.1,3.8
		c0,2.3-1.5,3.8-4.1,3.8h-13c-2.1,0-4.1-1.5-4.1-4.1L110.8,14.3L110.8,14.3z"/>
</g>
</svg>
