<svg version="1.1" id="Layer_1" xmlns="http://www.w3.org/2000/svg" xmlns:xlink="http://www.w3.org/1999/xlink" x="0px" y="0px" viewBox="0 0 143.7 70.4" style="enable-background:new 0 0 143.7 70.4;" xml:space="preserve">
<style type="text/css">
	.st0{fill:none;}
	.st1{fill:#1E88E5;}
	.st2{fill:#FFD54F;}
	.st3{fill:#FFC107;}
	.st4{fill:#1565C0;}
	.st5{opacity:0.8;fill:#FFFFFF;enable-background:new    ;}
</style>
<g id="guides">
	<rect x="-20" y="-21.8" class="st0" width="183.7" height="112.2"/>
</g>
<g id="woordmerk">
	<g>
		<path class="st1" d="M14.7,49.6H12h-0.2l0,0.2L8.2,63.6c-0.1,0.6-0.3,1.2-0.4,1.8c0,0,0,0,0,0c0,0,0,0,0-0.1    c0-0.3-0.1-0.6-0.2-0.9s-0.1-0.6-0.2-0.9L4,49.8l0-0.2H3.8H0.7H0.4l0.1,0.3l5.7,20l0,0.2h0.2H9h0.2l0-0.2l5.7-20l0.1-0.3    L14.7,49.6L14.7,49.6z"/>
		<path class="st1" d="M29.5,55.8c-0.2-1.3-0.7-2.4-1.2-3.4c-0.6-1-1.3-1.8-2.1-2.3c-0.9-0.6-2-0.9-3.2-0.9s-2.3,0.3-3.2,0.9    c-0.9,0.6-1.6,1.4-2.2,2.3c-0.5,1-0.9,2.1-1.2,3.4c-0.2,1.2-0.4,2.6-0.4,4s0.1,2.8,0.4,4c0.2,1.3,0.7,2.4,1.2,3.3    c0.5,1,1.3,1.7,2.2,2.3s2,0.9,3.2,0.9s2.3-0.3,3.2-0.9c0.9-0.6,1.6-1.3,2.1-2.3c0.5-0.9,1-2.1,1.2-3.4c0.2-1.3,0.4-2.6,0.4-4    C29.9,58.4,29.7,57.1,29.5,55.8z M26.5,59.8c0,1-0.1,2-0.2,3c-0.1,0.9-0.3,1.8-0.6,2.6c-0.3,0.8-0.6,1.4-1.1,1.8    c-0.4,0.4-1,0.7-1.7,0.7c-0.7,0-1.3-0.2-1.7-0.7c-0.5-0.5-0.8-1.1-1.1-1.8c-0.3-0.8-0.5-1.6-0.6-2.6c-0.1-1-0.2-2-0.2-3    c0-1,0-2,0.2-2.9c0.1-1,0.3-1.8,0.6-2.6c0.3-0.8,0.6-1.4,1.1-1.8c0.4-0.4,1-0.7,1.7-0.7c0.7,0,1.3,0.2,1.7,0.7    c0.5,0.5,0.8,1.1,1.1,1.8c0.3,0.8,0.5,1.7,0.6,2.6C26.4,57.8,26.5,58.8,26.5,59.8z"/>
		<path class="st1" d="M33.1,49.6h-0.2v0.2v20V70h0.2H36h0.2v-0.2v-20v-0.2H36H33.1z M36,40.5L33,40.9l-0.2,0v0.2v4.1v0.2h0.2H36    h0.2v-0.2v-4.6v-0.2L36,40.5z"/>
		<path class="st1" d="M49.6,66.8l-0.1-0.3l-0.2,0.2c-0.3,0.3-0.7,0.5-1.1,0.7c-0.4,0.2-0.9,0.3-1.4,0.3c-0.8,0-1.4-0.2-1.9-0.6    c-0.5-0.4-1-1-1.3-1.8c-0.3-0.7-0.6-1.6-0.7-2.6c-0.1-1-0.2-1.9-0.2-2.9s0.1-2,0.2-2.9c0.1-0.9,0.4-1.8,0.7-2.6    c0.3-0.7,0.7-1.3,1.3-1.8c0.5-0.4,1.2-0.7,1.9-0.7c0.5,0,1,0.1,1.4,0.3c0.4,0.2,0.8,0.4,1.1,0.7l0.2,0.2l0.1-0.3l0.7-1.8l0.1-0.1    l-0.1-0.1c-0.9-1-2.2-1.5-3.9-1.5c-1.2,0-2.3,0.3-3.2,0.9c-0.9,0.6-1.6,1.4-2.2,2.3c-0.6,1-1,2.1-1.3,3.4c-0.3,1.3-0.4,2.6-0.4,4    s0.1,2.7,0.4,4c0.3,1.3,0.7,2.4,1.3,3.4c0.6,1,1.3,1.7,2.2,2.3c0.9,0.6,2,0.9,3.2,0.9c1.7,0,3-0.5,3.9-1.5l0.1-0.1l-0.1-0.1    L49.6,66.8z"/>
		<path class="st1" d="M65.2,55.2C64.9,54,64.5,53,64,52.1c-0.5-0.9-1.2-1.6-2.1-2.1c-0.9-0.5-1.9-0.8-3.1-0.8    c-1.2,0-2.2,0.3-3.1,0.8c-0.9,0.6-1.6,1.3-2.2,2.3c-0.6,0.9-1,2.1-1.3,3.3s-0.4,2.6-0.4,4.1c0,3.3,0.7,5.9,2,7.8    c1.4,1.9,3.3,2.8,5.8,2.8c0.9,0,1.9-0.1,2.8-0.3c0.9-0.2,1.8-0.6,2.5-1.1l0.1-0.1l-0.1-0.2l-0.7-2l-0.1-0.3l-0.2,0.1    c-1.2,0.7-2.6,1.1-4.2,1.1s-2.7-0.6-3.5-1.8c-0.8-1.2-1.2-2.7-1.4-4.6l10.4-1.6l0.2,0v-0.2V59C65.5,57.7,65.4,56.4,65.2,55.2z     M55.1,56.4c0.2-0.9,0.4-1.8,0.7-2.5c0.3-0.7,0.7-1.3,1.2-1.7c0.5-0.4,1-0.6,1.7-0.6c0.7,0,1.2,0.2,1.7,0.5    c0.4,0.3,0.8,0.8,1.1,1.4c0.3,0.6,0.5,1.3,0.6,2.1c0.1,0.7,0.2,1.5,0.2,2.2L54.8,59C54.9,58.1,54.9,57.3,55.1,56.4z"/>
		<path class="st1" d="M89.6,49.6h-2.7h-0.2l0,0.2l-3,13.7c-0.1,0.5-0.2,1.1-0.3,1.6c-0.1-0.5-0.2-1.1-0.3-1.6L80,49.8l0-0.2h-0.2    h-2.6h-0.2l0,0.2l-3.2,13.7c-0.1,0.6-0.2,1.1-0.3,1.6c-0.1-0.5-0.1-1-0.3-1.6l-2.9-13.7l0-0.2h-0.2h-3h-0.3l0.1,0.3l4.9,20l0,0.2    h0.2h2.6h0.2l0-0.2l3.2-13.7c0.1-0.5,0.2-1.1,0.3-1.6c0.1,0.6,0.2,1.1,0.3,1.6l3.2,13.7l0,0.2h0.2h2.6h0.2l0-0.2l4.9-20l0.1-0.3    H89.6z"/>
		<path class="st1" d="M104.6,55.8c-0.2-1.3-0.7-2.4-1.2-3.4c-0.6-1-1.3-1.8-2.1-2.3c-0.9-0.6-1.9-0.9-3.2-0.9s-2.3,0.3-3.2,0.9    c-0.9,0.6-1.6,1.4-2.2,2.3c-0.5,1-0.9,2.1-1.2,3.4c-0.2,1.2-0.4,2.6-0.4,4s0.1,2.8,0.4,4c0.2,1.3,0.7,2.4,1.2,3.3    c0.6,1,1.3,1.7,2.2,2.3c0.9,0.6,2,0.9,3.2,0.9s2.3-0.3,3.2-0.9c0.9-0.6,1.6-1.3,2.1-2.3c0.6-0.9,1-2.1,1.2-3.4    c0.2-1.3,0.4-2.6,0.4-4C104.9,58.4,104.8,57.1,104.6,55.8z M96.3,52.4c0.4-0.4,1-0.7,1.7-0.7s1.3,0.2,1.7,0.7    c0.5,0.5,0.8,1.1,1.1,1.8c0.3,0.8,0.5,1.7,0.6,2.6c0.1,1,0.2,2,0.2,2.9c0,1-0.1,2-0.2,3c-0.1,0.9-0.3,1.8-0.6,2.6    c-0.3,0.8-0.6,1.4-1.1,1.8c-0.4,0.4-1,0.7-1.7,0.7s-1.3-0.2-1.7-0.7c-0.5-0.5-0.8-1.1-1.1-1.8c-0.3-0.8-0.5-1.6-0.6-2.6    c-0.1-1-0.2-1.9-0.2-3c0-1,0.1-2,0.2-2.9s0.3-1.8,0.6-2.6C95.5,53.4,95.8,52.8,96.3,52.4z"/>
		<path class="st1" d="M115.7,49.3c-0.2,0-0.5,0-0.8-0.1c-0.3,0-0.6,0-0.8,0c-1.1,0-2.2,0.1-3.2,0.3c-1,0.2-2,0.6-3,1.1l-0.1,0.1    v0.1v18.9V70h0.2h2.9h0.2v-0.2V52.2c0.3-0.1,0.6-0.2,1-0.3c0.4-0.1,0.8-0.1,1.1-0.1c0.3,0,0.6,0,0.9,0c0.3,0,0.6,0.1,0.8,0.1    l0.2,0.1l0.1-0.2l0.7-2.2l0.1-0.2L115.7,49.3z"/>
		<polygon class="st1" points="131.8,69.7 124.3,59.2 131.3,50 131.6,49.6 131.2,49.6 128.1,49.6 128,49.6 127.9,49.7 121.5,58.7     121.5,40.7 121.5,40.5 121.2,40.5 118.3,40.9 118.1,41 118.1,41.2 118.1,69.8 118.1,70 118.4,70 121.2,70 121.5,70 121.5,69.8     121.5,60 128.1,69.9 128.2,70 128.3,70 131.6,70 132,70   "/>
		<path class="st1" d="M142.7,61.8c-0.4-0.7-0.9-1.3-1.5-1.8c-0.6-0.5-1.2-0.9-1.9-1.3c-0.6-0.3-1.3-0.7-1.8-1.1    c-0.5-0.4-1-0.8-1.4-1.3c-0.4-0.4-0.5-1-0.5-1.8c0-0.8,0.2-1.5,0.8-2c0.5-0.5,1.2-0.8,2.1-0.8c0.6,0,1.2,0.1,1.8,0.3    c0.6,0.2,1,0.5,1.4,0.8l0.2,0.2l0.1-0.3l0.8-1.8l0.1-0.2l-0.1-0.1c-0.6-0.5-1.3-0.8-2-1.1s-1.6-0.4-2.5-0.4    c-0.8,0-1.6,0.1-2.3,0.4c-0.7,0.2-1.4,0.6-1.9,1.1c-0.5,0.5-0.9,1-1.2,1.7c-0.3,0.7-0.4,1.4-0.4,2.2c0,1.1,0.2,2,0.6,2.7    c0.4,0.7,0.9,1.3,1.4,1.8c0.6,0.5,1.2,0.9,1.9,1.3c0.6,0.3,1.2,0.7,1.8,1.1c0.5,0.4,1,0.8,1.3,1.3c0.3,0.5,0.5,1.1,0.5,1.8    c0,0.9-0.3,1.6-0.8,2.3c-0.5,0.6-1.3,0.9-2.2,0.9c-0.6,0-1.2-0.1-1.9-0.3c-0.7-0.2-1.3-0.5-1.8-0.8l-0.2-0.2l-0.1,0.2l-0.8,2    l-0.1,0.2l0.1,0.1c0.7,0.5,1.5,0.8,2.3,1.1c0.8,0.2,1.7,0.4,2.6,0.4c0.9,0,1.8-0.2,2.5-0.4c0.8-0.3,1.4-0.7,2-1.2s1-1.1,1.3-1.9    c0.3-0.7,0.4-1.5,0.4-2.4C143.3,63.4,143.1,62.5,142.7,61.8z"/>
	</g>
</g>
<g id="beeldmerk">
	<g>
		<g>
			<path class="st2" d="M58.5,13.5c3.1-1.1,7.3-1.8,12.1-1.9v10c-0.1,0.1-0.2,0.2-0.3,0.3c-2,1.9-3.8,3.9-5.2,5.8     c-1.4,1.8-2.6,3.5-3.3,5c-0.7,1.4-0.9,2.5-0.7,3.2c0.1,0.3,0.3,0.6,0.5,0.8c-4.2-2.4-7.4-6.3-9.1-10.9c-0.3-0.8-0.3-2,0.3-3.5     c0.6-1.6,1.6-3.4,2.9-5.2C56.6,15.8,57.5,14.7,58.5,13.5z M87.7,10c1.2-0.3,2-0.2,2.5,0.2c0.1,0.1,0.2,0.2,0.3,0.4     c-2-4.5-5.6-8.1-10-10.2c-0.6-0.3-1.3-0.4-2.2-0.3c-1.3,0.1-3,0.7-5,1.7c0,0-0.1,0-0.1,0.1v7.3c4.2,0.1,8.5,0.7,12,1.8     C86.1,10.5,87,10.2,87.7,10z"/>
		</g>
		<g>
			<path class="st1" d="M65.5,0.2c-0.9-0.1-1.7,0-2.2,0.3c-4.4,2.1-8,5.7-10,10.2c0.1-0.1,0.2-0.3,0.3-0.4C54,9.8,54.8,9.7,56,10     c0.7,0.2,1.6,0.5,2.6,1c3.5-1.1,7.8-1.7,12-1.8V1.9c0,0-0.1,0-0.1-0.1C68.5,0.9,66.9,0.4,65.5,0.2z M90.8,22.2     c-0.6-1.6-1.6-3.4-2.9-5.2c-0.8-1.1-1.7-2.3-2.8-3.4c-3.1-1.1-7.3-1.8-12.1-1.9v10c0.1,0.1,0.2,0.2,0.3,0.3     c2,1.9,3.8,3.9,5.2,5.8c1.4,1.8,2.6,3.5,3.3,5c0.7,1.4,0.9,2.5,0.7,3.2c-0.1,0.3-0.3,0.6-0.5,0.8c4.2-2.4,7.4-6.3,9.1-10.9     C91.4,24.9,91.4,23.7,90.8,22.2z"/>
		</g>
		<path class="st3" d="M89.4,12.1c0.2-0.7,0.1-1,0.1-1c-0.1-0.1-0.5-0.2-1.5,0c-0.7,0.2-1.5,0.5-2.4,0.9l-0.4,0.2l-0.4-0.1    c-3.3-1-7.5-1.6-11.7-1.7V9.2c4.2,0.1,8.5,0.7,12,1.8c1-0.5,1.9-0.8,2.6-1c0.1,0,0.1,0,0.2,0l0,0c0.6-0.1,1-0.1,1.4-0.1    c0,0,0,0,0.1,0c0.2,0,0.3,0.1,0.5,0.1c0.2,0.1,0.3,0.1,0.4,0.2s0.2,0.2,0.3,0.4l0,0l0,0c0.2,0.4,0.2,1,0,1.8    c-0.2,1-0.8,2.2-1.8,3.7c-0.2,0.3-0.4,0.7-0.7,1c0,0-0.1-0.1-0.1-0.2c0,0-0.1-0.1-0.1-0.1l0,0c-0.2-0.2-0.4-0.5-0.6-0.7    c0.2-0.2,0.3-0.4,0.4-0.6C88.8,13.8,89.2,12.8,89.4,12.1z M70.1,32.5c-1.7,1.1-3.2,1.9-4.5,2.5c-1.6,0.7-2.5,0.8-2.9,0.8    c-0.3,0-0.4-0.1-0.5-0.1c0,0,0,0-0.1-0.1c0-0.2-0.1-0.8,0.6-2.4c0.6-1.3,1.7-3,3.1-4.8c1.3-1.7,2.9-3.4,4.7-5.2v-1.6    c-0.1,0.1-0.2,0.2-0.3,0.3c-2,1.9-3.8,3.9-5.2,5.8c-1.4,1.8-2.6,3.5-3.3,5c-0.7,1.4-0.9,2.5-0.7,3.2c0.1,0.3,0.3,0.6,0.5,0.8    c0.3,0.2,0.6,0.3,1.1,0.3c0.8,0,2-0.3,3.3-0.9c1.3-0.6,2.9-1.4,4.7-2.6c0.4-0.2,0.7-0.5,1.1-0.8l0,0v-1.4l-1,0.7    C70.6,32.2,70.4,32.3,70.1,32.5z"/>
		<path class="st4" d="M56,15.5c0.1,0.2,0.3,0.4,0.4,0.6c-0.2,0.2-0.4,0.5-0.6,0.7l0,0c0,0-0.1,0.1-0.1,0.1c0,0-0.1,0.1-0.1,0.2    c-0.2-0.3-0.5-0.7-0.7-1c-0.9-1.5-1.5-2.7-1.8-3.7c-0.2-0.8-0.2-1.4,0-1.8l0,0l0,0c0.1-0.1,0.2-0.3,0.3-0.4    c0.1-0.1,0.2-0.2,0.4-0.2c0.1,0,0.3-0.1,0.5-0.1c0,0,0,0,0.1,0c0.4,0,0.9,0,1.4,0.1l0,0c0.1,0,0.1,0,0.2,0c0.7,0.2,1.6,0.5,2.6,1    c3.5-1.1,7.8-1.7,12-1.8v1.2c-4.2,0.1-8.3,0.7-11.7,1.7l-0.4,0.1L58.2,12c-0.9-0.4-1.7-0.7-2.4-0.9c-1-0.2-1.4-0.1-1.5,0    c0,0-0.1,0.3,0.1,1C54.5,12.8,54.9,13.8,56,15.5z M72.9,32l-1-0.7v1.4l0,0c0.4,0.2,0.7,0.5,1.1,0.8c1.8,1.1,3.3,2,4.7,2.6    c1.4,0.6,2.5,0.9,3.3,0.9c0.4,0,0.8-0.1,1.1-0.3c0.3-0.2,0.4-0.4,0.5-0.8c0.2-0.7,0-1.8-0.7-3.2c-0.7-1.5-1.8-3.2-3.3-5    c-1.5-1.9-3.3-3.8-5.2-5.8c-0.1-0.1-0.2-0.2-0.3-0.3v1.6c1.8,1.8,3.3,3.5,4.7,5.2c1.4,1.8,2.5,3.4,3.1,4.8    c0.8,1.6,0.7,2.2,0.6,2.4c0,0.1,0,0.1-0.1,0.1c0,0-0.1,0.1-0.5,0.1c-0.4,0-1.3-0.1-2.9-0.8c-1.3-0.6-2.8-1.4-4.5-2.5    C73.4,32.3,73.1,32.2,72.9,32z"/>
	</g>
</g>
<g id="Shades__x26__high_lights">
	<path class="st5" d="M85.1,11c-3.5-1.1-7.8-1.7-12-1.8V8.7C77.3,8.8,81.6,9.9,85.1,11z M70.7,9.2V8.7c-4.2,0.1-8.5,1.2-12,2.3   C62.2,9.9,66.4,9.3,70.7,9.2z"/>
</g>
</svg>